<?xml version="1.0" standalone="no"?>
<!DOCTYPE svg PUBLIC "-//W3C//DTD SVG 1.1//EN" "http://www.w3.org/Graphics/SVG/1.1/DTD/svg11.dtd" >
<svg xmlns="http://www.w3.org/2000/svg" xmlns:xlink="http://www.w3.org/1999/xlink" version="1.1">
<metadata></metadata>
<defs>
<font id="kenyan_coffeeregular" horiz-adv-x="821" >
<font-face units-per-em="2048" ascent="1630" descent="-418" />
<missing-glyph horiz-adv-x="352" />
<glyph unicode="&#x28;C&#x29;" horiz-adv-x="1222" d="M74 373v872q0 129 22.5 207t82 120t162.5 54t267 12t269.5 -12t166 -54t83 -120t22.5 -207v-872q0 -129 -22.5 -207t-82 -120t-165 -54t-271.5 -12t-269 12t-162.5 54t-81 120t-21.5 207zM244 375q0 -78 11 -126t49 -76t109.5 -38t194.5 -10t196 10t110.5 38t50 76 t12.5 126v870q0 74 -11.5 123t-50 77t-111.5 39t-196 11q-121 0 -192.5 -10t-109.5 -38t-50 -77t-12 -125v-870zM426 580v485q0 55 8 89t28.5 51.5t57.5 22.5t96 5q55 0 91 -6t55.5 -24.5t27 -51.5t7.5 -86v-139h-121v123q0 33 -12.5 44t-47.5 11t-48 -11.5t-13 -43.5v-455 q0 -35 11.5 -46t49.5 -11q37 0 48.5 11t11.5 46v194h121v-208q0 -59 -8.5 -93t-30 -51.5t-56 -22.5t-86.5 -5q-59 0 -96 6t-58.5 24.5t-28.5 52t-7 89.5z" />
<glyph unicode="&#x28;R&#x29;" horiz-adv-x="1222" d="M74 373v872q0 129 22.5 207t82 120t162.5 54t267 12t269.5 -12t166 -54t83 -120t22.5 -207v-872q0 -129 -22.5 -207t-82 -120t-165 -54t-271.5 -12t-269 12t-162.5 54t-81 120t-21.5 207zM244 375q0 -78 11 -126t49 -76t109.5 -38t194.5 -10t196 10t110.5 38t50 76 t12.5 126v870q0 74 -11.5 123t-50 77t-111.5 39t-196 11q-121 0 -192.5 -10t-109.5 -38t-50 -77t-12 -125v-870zM408 391v883h204q66 0 107 -7t63.5 -28.5t30.5 -61.5t8 -106v-115q0 -68 -28.5 -90t-53.5 -28v-9q39 -8 60.5 -38.5t21.5 -108.5v-291h-143v303q0 53 -8 66.5 t-35 13.5h-86v-383h-141zM549 889h86q29 0 36 13t7 42v127q0 47 -10.5 60.5t-49.5 13.5h-69v-256z" />
<glyph horiz-adv-x="0" />
<glyph unicode="&#xd;" horiz-adv-x="329" />
<glyph horiz-adv-x="352" />
<glyph unicode=" "  horiz-adv-x="352" />
<glyph unicode="&#x09;" horiz-adv-x="352" />
<glyph unicode="&#xa0;" horiz-adv-x="352" />
<glyph unicode="!" horiz-adv-x="370" d="M63 1618h242l-39 -1231h-162zM78 0v270h215v-270h-215z" />
<glyph unicode="&#x22;" horiz-adv-x="657" d="M63 1036zM63 1618h183l-31 -582h-121zM391 1618h183l-31 -582h-121z" />
<glyph unicode="#" horiz-adv-x="892" d="M45 461l27 203h121l30 286h-141l24 201h142l55 467h143l-55 -467h187l53 467h145l-55 -467h123l-27 -201h-119l-32 -286h139l-23 -203h-141l-53 -461h-146l54 461h-185l-53 -461h-143l53 461h-123zM336 664h184l33 286h-184z" />
<glyph unicode="$" d="M74 1147v147q0 100 10 164t38 101.5t75 54t122 20.5v131h183v-131q74 -4 120 -20.5t71.5 -54t35.5 -101t10 -164.5v-200h-229v200q0 43 -4 70t-14.5 41t-31 18t-50.5 4q-33 0 -52.5 -5t-31 -19t-14.5 -41t-3 -68v-149q0 -35 4 -58.5t18.5 -41t40 -33t68.5 -33.5 q106 -49 168 -85t92.5 -78t39 -99.5t8.5 -145.5v-249q0 -100 -10.5 -164t-37 -101t-74.5 -53t-124 -20v-131h-183v131q-72 4 -117.5 20t-72.5 53t-37 100.5t-10 164.5v321h229v-321q0 -43 3 -69t14.5 -40t31 -19.5t50.5 -5.5q66 0 83 25t17 109v221q0 47 -2 78.5t-13.5 54 t-34 39t-63.5 35.5q-111 49 -175 85.5t-97 78.5t-42 95.5t-9 137.5z" />
<glyph unicode="%" horiz-adv-x="1470" d="M82 0zM82 907v531q0 63 8 101t32.5 58.5t69 26.5t113.5 6q70 0 114 -6t68.5 -26.5t33.5 -58.5t9 -101v-531q0 -66 -9 -103.5t-33.5 -58t-68.5 -26.5t-114 -6t-114 6t-68.5 26.5t-32.5 58.5t-8 103zM244 907q0 -41 10 -52t51 -11t51.5 11t10.5 52v531q0 41 -10.5 51 t-51.5 10t-51 -11t-10 -50v-531zM317 0l676 1618h160l-676 -1618h-160zM936 182v531q0 63 8 101t32.5 58.5t69 26.5t113.5 6q70 0 114 -6t68.5 -26.5t33.5 -58.5t9 -101v-531q0 -66 -9 -103.5t-33.5 -58t-68.5 -26.5t-114 -6t-114 6t-68.5 26.5t-32.5 58.5t-8 103zM1098 182 q0 -41 10 -52t51 -11t51.5 11t10.5 52v531q0 41 -10.5 51t-51.5 10t-51 -11t-10 -50v-531z" />
<glyph unicode="&#x26;" horiz-adv-x="813" d="M74 332v356q0 70 11 114t30.5 70.5t46 41t57.5 26.5v8q-25 4 -50.5 15.5t-47 35t-34.5 64.5t-13 104v121q0 109 13 173.5t50 99t102.5 46t170.5 11.5h34v-205h-34q-33 0 -52.5 -5t-31 -18.5t-14.5 -38t-3 -63.5v-141q0 -63 17.5 -89t79.5 -26h90v230h219v-230h76v-186 h-76v-846h-305q-104 0 -170 11.5t-103 46t-50 100t-13 174.5zM309 332q0 -43 3 -67.5t14.5 -39t31 -18.5t52.5 -4h86v643h-90q-61 0 -79 -25.5t-18 -91.5v-397z" />
<glyph unicode="'" horiz-adv-x="311" d="M63 1618h183l-31 -582h-121z" />
<glyph unicode="(" horiz-adv-x="526" d="M131 -10v1523q0 100 14.5 170t50 114t94 64.5t148.5 20.5h37v-151h-37q-43 0 -70.5 -8.5t-43 -33t-20.5 -66.5t-5 -110v-1523q0 -70 5 -113t20.5 -65.5t43 -30.5t70.5 -8h37v-152h-37q-94 0 -154.5 20.5t-94 64.5t-46 113.5t-12.5 170.5z" />
<glyph unicode=")" horiz-adv-x="526" d="M51 -227h37q43 0 69.5 8t42 30.5t21.5 65.5t6 113v1523q0 68 -5 110t-20.5 66.5t-43 33t-70.5 8.5h-37v151h37q88 0 147.5 -20.5t95.5 -64.5t50 -113.5t14 -170.5v-1523q0 -100 -12 -170t-46 -114t-94.5 -64.5t-154.5 -20.5h-37v152z" />
<glyph unicode="*" horiz-adv-x="897" d="M90 995l29 99l239 114l-239 117l-29 98l94 27l219 -160l-24 275l70 73l67 -73l-22 -275l219 160l94 -27l-27 -98l-241 -117l241 -114l27 -99l-94 -26l-219 159l22 -274l-67 -74l-70 74l24 274l-219 -159z" />
<glyph unicode="+" horiz-adv-x="1015" d="M90 725v186h324v322h184v-322h326v-186h-326v-324h-184v324h-324z" />
<glyph unicode="," horiz-adv-x="395" d="M90 0v270h215v-309q0 -86 -43 -132t-149 -46h-23v96h27q33 0 49 16.5t16 59.5v45h-92z" />
<glyph unicode="-" horiz-adv-x="421" d="M43 590v184h334v-184h-334z" />
<glyph unicode="." horiz-adv-x="395" d="M90 0v270h215v-270h-215z" />
<glyph unicode="/" horiz-adv-x="561" d="M8 -147l369 1916h174l-371 -1916h-172z" />
<glyph unicode="0" d="M74 322v976q0 113 13 179.5t50 102.5t102.5 47t170.5 11q104 0 169.5 -11t103.5 -47t51.5 -102.5t13.5 -179.5v-976q0 -113 -13.5 -180.5t-51.5 -103.5t-103.5 -47t-169.5 -11t-170 11t-103 47t-50 103.5t-13 180.5zM309 322q0 -43 3 -69t14.5 -40t31 -19.5t52.5 -5.5 t52 5.5t30.5 20.5t14.5 41t3 67v976q0 82 -18.5 105.5t-81.5 23.5q-33 0 -52.5 -5t-31 -19t-14.5 -40t-3 -65v-976z" />
<glyph unicode="1" horiz-adv-x="505" d="M37 1415v203h379v-1618h-238v1415h-141z" />
<glyph unicode="2" horiz-adv-x="849" d="M86 0v487q0 102 6 166t24.5 106t52.5 70.5t87 61.5l182 110q51 33 68.5 59.5t17.5 84.5v160q0 39 -3 62.5t-14 36.5t-30.5 18t-50.5 5q-66 0 -84 -25.5t-18 -103.5v-200h-230v200q0 113 13.5 179.5t50.5 102.5t101.5 47t168.5 11t170 -11t102.5 -46t49 -100.5 t12.5 -175.5v-170q0 -63 -6 -107.5t-24.5 -78.5t-50.5 -60.5t-81 -54.5l-197 -117q-25 -16 -41 -29.5t-24 -31t-11 -40t-3 -55.5v-352h198v391h240v-600h-676z" />
<glyph unicode="3" horiz-adv-x="804" d="M68 317v314h225v-314q0 -78 20.5 -102.5t79.5 -24.5q61 0 80 28t19 99v277q0 51 -2.5 85t-11.5 54.5t-28.5 28.5t-54.5 8h-135v213h135q63 0 80 23.5t17 83.5v210q0 41 -4.5 66t-15.5 39t-30.5 18t-50.5 4q-37 0 -56.5 -6t-28.5 -21.5t-11 -40t-2 -59.5v-190h-225v190 q0 111 13 178.5t49 102.5t99.5 46t161.5 11q104 0 170 -11t103.5 -47t51 -101.5t13.5 -173.5v-203q0 -63 -13.5 -103.5t-35 -65t-47 -35.5t-49.5 -17v-9q33 -6 59.5 -20t46 -45t29.5 -81t10 -130v-283q0 -109 -13.5 -175t-51 -101t-103 -46t-170.5 -11q-98 0 -161.5 11 t-99.5 46t-49 102.5t-13 177.5z" />
<glyph unicode="4" horiz-adv-x="860" d="M80 463l6 1165h217l-6 -964h180v708h240v-708h96v-201h-96v-463h-240v463h-397z" />
<glyph unicode="5" horiz-adv-x="829" d="M86 319v291h225v-291q0 -43 3 -68.5t12.5 -38.5t29 -18.5t54.5 -5.5q33 0 52 5.5t30.5 18.5t14.5 38.5t3 68.5v293q0 51 -3 88t-15.5 58.5t-36 32t-64.5 10.5h-305l6 817h656v-518h-238v342h-197l-2 -469h181q72 0 121 -16.5t78.5 -54.5t43 -99.5t13.5 -153.5v-327 q0 -113 -14.5 -180.5t-51.5 -103.5t-102.5 -47t-169.5 -11q-98 0 -162 11t-99.5 47t-49 102.5t-13.5 178.5z" />
<glyph unicode="6" d="M74 322v976q0 113 13 179.5t50 102.5t102.5 47t170.5 11q98 0 161.5 -11t100.5 -47t50 -102.5t13 -179.5v-161h-227v161q0 41 -3 67t-14.5 39t-31 18t-49.5 5q-63 0 -82 -25.5t-19 -103.5v-430q45 90 205 90q74 0 120 -17t71.5 -57t34 -105.5t8.5 -162.5v-294 q0 -113 -13.5 -180.5t-51.5 -103.5t-103.5 -47t-169.5 -11t-170 11t-103 47t-50 103.5t-13 180.5zM309 340q0 -49 4 -80t15.5 -46t31 -20.5t50.5 -5.5q61 0 80.5 24t19.5 110v290q0 53 -4 85t-14.5 49.5t-28 22.5t-43.5 5q-53 0 -77 -22.5t-34 -71.5v-340z" />
<glyph unicode="7" horiz-adv-x="675" d="M53 1421v197h563v-180l-303 -1438h-243l313 1421h-330z" />
<glyph unicode="8" horiz-adv-x="825" d="M74 311v285q0 80 10 130t30.5 81t48 45t62.5 20v9q-27 6 -54.5 17t-49 35.5t-34.5 64.5t-13 104v207q0 106 13 171.5t51 100.5t104 46t170 11t169.5 -11t103.5 -46t51.5 -100.5t13.5 -171.5v-207q0 -63 -13.5 -103.5t-35 -65t-49 -35.5t-54.5 -17v-9q35 -6 63.5 -20 t48 -45t30 -81t10.5 -130v-285q0 -109 -13.5 -174t-51.5 -100t-103.5 -46t-169.5 -11t-170 11t-104 46t-51 100.5t-13 173.5zM311 313q0 -39 4 -63.5t14.5 -37.5t31 -18.5t51.5 -5.5q63 0 81.5 24t18.5 101v328q0 45 -4 72.5t-14.5 43t-31 20.5t-50.5 5q-33 0 -52.5 -5 t-31 -22.5t-14.5 -52t-3 -92.5v-297zM311 1083q0 -63 17.5 -87.5t83.5 -24.5q68 0 84 23.5t16 88.5v201q0 45 -3 73.5t-13.5 44t-30.5 20.5t-53 5q-35 0 -54.5 -6t-30 -21.5t-13.5 -43t-3 -72.5v-201z" />
<glyph unicode="9" d="M74 954v342q0 113 13 180.5t50 103.5t102.5 47t170.5 11q104 0 169.5 -11t103.5 -47t51.5 -103.5t13.5 -180.5v-977q0 -113 -13.5 -179t-51.5 -102t-103.5 -47t-169.5 -11q-98 0 -162 11t-99.5 47t-49 102.5t-13.5 178.5v125h225v-125q0 -41 4 -66.5t15.5 -39.5t30 -19.5 t49.5 -5.5q66 0 83 27t17 104v381q-45 -88 -203 -88q-74 0 -120 17.5t-70.5 57.5t-33.5 105.5t-9 161.5zM309 1001q0 -63 1 -103t10.5 -63.5t28 -31.5t52.5 -8q53 0 77 20.5t32 73.5v407q0 43 -3 69t-14.5 40t-31 18t-51.5 4q-33 0 -52.5 -4t-31 -18t-14.5 -40t-3 -69v-295z " />
<glyph unicode=":" horiz-adv-x="395" d="M90 0v270h215v-270h-215zM90 813v270h215v-270h-215z" />
<glyph unicode=";" horiz-adv-x="395" d="M90 0v270h215v-309q0 -86 -43 -132t-149 -46h-23v96h27q33 0 49 16.5t16 59.5v45h-92zM90 813v270h215v-270h-215z" />
<glyph unicode="&#x3c;" horiz-adv-x="1015" d="M90 719v199l834 337v-186l-631 -250l631 -252v-186z" />
<glyph unicode="=" horiz-adv-x="1015" d="M90 506v184h836v-184h-836zM90 952v185h836v-185h-836z" />
<glyph unicode="&#x3e;" horiz-adv-x="1015" d="M92 381v186l631 252l-631 250v186l834 -337v-199z" />
<glyph unicode="?" horiz-adv-x="792" d="M59 1094v204q0 113 13.5 179.5t50.5 102.5t101.5 47t164.5 11q104 0 170 -11t102.5 -47t51 -102.5t14.5 -179.5v-145q0 -53 -3 -90t-11 -67.5t-22.5 -60.5t-39.5 -67l-141 -225q-12 -18 -19.5 -32.5t-11.5 -29t-5 -32t-1 -41.5v-121h-201v131q0 49 3.5 84t10.5 65.5 t19 58.5t33 60l113 179q25 39 31.5 72.5t6.5 97.5v163q0 41 -4 67t-14 39t-29.5 18t-52.5 5q-35 0 -54.5 -5t-29.5 -19t-13 -40t-3 -65v-204h-230zM268 0v268h215v-268h-215z" />
<glyph unicode="@" horiz-adv-x="866" d="M74 84v987q0 113 14 179.5t53 102.5t110 47t181 11q111 0 181.5 -11t110.5 -47t54.5 -102.5t14.5 -179.5v-799h-136v50q-18 -29 -51 -43.5t-88 -14.5q-92 0 -120.5 38t-28.5 140v299q0 55 6 91t22.5 57.5t45 30t75.5 8.5q96 0 129 -49v204q0 55 -6 91t-27.5 55.5 t-63.5 28t-114 8.5t-114.5 -6.5t-65.5 -27t-29 -56t-6 -93.5v-1013q0 -53 6 -86t29 -51.5t66 -24.5t114 -6q72 0 114 6t63.5 24.5t27.5 51t6 86.5v57h146v-43q0 -109 -14.5 -174.5t-54.5 -100t-110.5 -46t-181.5 -11.5t-181.5 11.5t-109.5 46t-53 100t-14 174.5zM504 457 q0 -45 13 -61.5t54 -16.5q29 0 47.5 16.5t28.5 38.5v320q-18 47 -76 47q-39 0 -53 -18.5t-14 -59.5v-266z" />
<glyph unicode="A" d="M78 0v1298q0 113 13 179.5t50 102.5t101.5 47t165.5 11q100 0 164.5 -12t102.5 -49t52 -103.5t14 -175.5v-1298h-235v360h-199v-360h-229zM307 553h199v745q0 41 -4 67t-14.5 39t-30.5 18t-51 5t-50.5 -5t-31 -18t-14.5 -39t-3 -67v-745z" />
<glyph unicode="B" horiz-adv-x="833" d="M90 0v1618h336q104 0 170 -11.5t103.5 -46t51 -99t13.5 -173.5v-121q0 -63 -15.5 -104t-37 -65.5t-47 -37t-46.5 -14.5v-8q33 -8 60 -22.5t46 -44t29.5 -76.5t10.5 -121v-342q0 -109 -13.5 -174.5t-51 -100t-103.5 -46t-170 -11.5h-336zM326 203h100q33 0 52.5 5 t29.5 18.5t14 39t4 66.5v395q0 68 -16 93.5t-78 25.5h-106v-643zM326 1032h106q57 0 75.5 22.5t18.5 82.5v151q0 37 -3 61.5t-13 39t-30.5 19.5t-53.5 5h-100v-381z" />
<glyph unicode="C" horiz-adv-x="808" d="M74 322v976q0 111 14 178.5t52 103.5t103.5 47t166.5 11q98 0 161.5 -11t100.5 -47t50 -102.5t13 -179.5v-366h-227v366q0 41 -3 67t-14.5 39t-31 18t-49.5 5q-33 0 -52.5 -5t-31 -19t-14.5 -40t-3 -65v-976q0 -43 3 -69t14.5 -40t31 -19.5t52.5 -5.5q31 0 50 5.5 t30.5 19.5t14.5 40t3 69v374h227v-374q0 -113 -13 -180.5t-50 -103.5t-100.5 -47t-161.5 -11q-104 0 -170 11t-103 47t-50 103.5t-13 180.5z" />
<glyph unicode="D" horiz-adv-x="837" d="M90 0v1618h336q104 0 170 -11.5t103.5 -46t51 -99t13.5 -173.5v-956q0 -109 -13.5 -174.5t-51 -100t-103.5 -46t-170 -11.5h-336zM326 203h100q33 0 52.5 5t29.5 18.5t14 39t4 66.5v956q0 39 -4 63.5t-14 39t-29.5 18.5t-52.5 4h-100v-1210z" />
<glyph unicode="E" horiz-adv-x="602" d="M90 0v1618h461v-195h-225v-235h219v-187h-219v-798h227v-203h-463z" />
<glyph unicode="F" horiz-adv-x="589" d="M90 0v1618h471v-195h-235v-239h227v-195h-227v-989h-236z" />
<glyph unicode="G" horiz-adv-x="817" d="M74 322v976q0 111 14 178.5t52 103.5t103.5 47t166.5 11q98 0 161.5 -11t100.5 -47t50 -102.5t13 -179.5v-147h-227v147q0 41 -3 67t-14.5 39t-31 18t-49.5 5q-33 0 -52.5 -5t-31 -19t-14.5 -40t-3 -65v-976q0 -41 3 -67t14.5 -40t31 -20.5t52.5 -6.5q41 0 66.5 2.5 t37.5 6.5v743h221v-940q-29 -6 -109.5 -13t-215.5 -7q-104 0 -170 13t-103 51t-50 104.5t-13 173.5z" />
<glyph unicode="H" horiz-adv-x="858" d="M90 0v1618h236v-535h204v535h238v-1618h-238v885h-204v-885h-236z" />
<glyph unicode="I" horiz-adv-x="425" d="M94 0v1618h236v-1618h-236z" />
<glyph unicode="J" horiz-adv-x="765" d="M29 322v374h215v-374q0 -84 18.5 -109t77.5 -25q61 0 78.5 26t17.5 108v1296h238v-1296q0 -113 -13.5 -180.5t-49.5 -103.5t-100.5 -47t-166.5 -11q-96 0 -157.5 11t-96.5 47t-48 103.5t-13 180.5z" />
<glyph unicode="K" horiz-adv-x="831" d="M90 0v1616h238v-610h10l199 612h247l-241 -672l274 -946h-256l-223 850h-10v-850h-238z" />
<glyph unicode="L" horiz-adv-x="593" d="M90 0v1618h236v-1413h241v-205h-477z" />
<glyph unicode="M" horiz-adv-x="1095" d="M90 0v1618h330l123 -1088h8l125 1088h328v-1618h-193v1143h-8l-150 -1143h-211l-149 1151h-8v-1151h-195z" />
<glyph unicode="N" horiz-adv-x="888" d="M90 0v1618h260l234 -1038h8v1038h205v-1618h-252l-244 1010h-8v-1010h-203z" />
<glyph unicode="O" d="M74 322v976q0 113 13 179.5t50 102.5t102.5 47t170.5 11q104 0 169.5 -11t103.5 -47t51.5 -102.5t13.5 -179.5v-976q0 -113 -13.5 -180.5t-51.5 -103.5t-103.5 -47t-169.5 -11t-170 11t-103 47t-50 103.5t-13 180.5zM309 322q0 -43 3 -69t14.5 -40t31 -19.5t52.5 -5.5 t52 5.5t30.5 20.5t14.5 41t3 67v976q0 82 -18.5 105.5t-81.5 23.5q-33 0 -52.5 -5t-31 -19t-14.5 -40t-3 -65v-976z" />
<glyph unicode="P" horiz-adv-x="813" d="M90 0v1618h336q104 0 170 -11.5t103.5 -46t51 -99t13.5 -173.5v-346q0 -109 -14.5 -174.5t-52.5 -100t-103.5 -45t-167.5 -10.5h-100v-612h-236zM326 803h100q31 0 51.5 5t30.5 19.5t14 40t4 66.5v354q0 39 -3 63.5t-13 38t-29.5 18.5t-54.5 5h-100v-610z" />
<glyph unicode="Q" d="M74 334v964q0 113 13 179.5t50 102.5t102.5 47t170.5 11q104 0 169.5 -11t103.5 -47t51.5 -102.5t13.5 -179.5v-964q0 -139 -25 -207t-96 -90l121 -193h-205l-109 174q-117 0 -188.5 10.5t-109.5 43t-50 95t-12 167.5zM309 334q0 -43 3 -67.5t14.5 -39t31 -18.5t52.5 -4 t52 5t30.5 18.5t14.5 39t3 66.5v964q0 82 -18.5 105.5t-81.5 23.5q-33 0 -52.5 -5t-31 -19t-14.5 -40t-3 -65v-964z" />
<glyph unicode="R" horiz-adv-x="841" d="M90 0v1618h336q104 0 170 -11.5t103.5 -47t51 -100t13.5 -171.5v-170q0 -63 -13.5 -103t-35 -64.5t-47 -36t-50.5 -17.5v-8q33 -8 60 -21.5t46 -41t29.5 -70.5t10.5 -111v-645h-238v682q0 66 -16 91.5t-78 25.5h-106v-799h-236zM326 985h106q57 0 75.5 22.5t18.5 82.5 v198q0 39 -3 62.5t-13 38t-30.5 19.5t-53.5 5h-100v-428z" />
<glyph unicode="S" horiz-adv-x="813" d="M70 1139v155q0 113 13 180.5t50 104.5t102.5 48t170.5 11q102 0 166.5 -11t100.5 -48t49 -104.5t13 -180.5v-200h-229v200q0 43 -3 70t-13.5 40t-31 18t-52.5 5q-35 0 -54.5 -5t-30 -18t-13.5 -40t-3 -70v-159q0 -31 4 -51.5t17.5 -37t39 -33t70.5 -38.5q106 -55 168 -94 t92.5 -79t38.5 -90t8 -130v-260q0 -113 -13 -180.5t-50 -103.5t-103.5 -47t-170.5 -11q-98 0 -162 11t-101 47t-51 103.5t-14 180.5v321h229v-321q0 -43 3 -69t13.5 -40t30 -19.5t52.5 -5.5q66 0 83 25t17 109v243q0 41 -3 67.5t-16.5 47t-40 38t-71.5 42.5q-106 55 -167 94 t-91.5 79t-38.5 88t-8 118z" />
<glyph unicode="T" horiz-adv-x="641" d="M25 1421v197h589v-197h-176v-1421h-235v1421h-178z" />
<glyph unicode="U" horiz-adv-x="829" d="M82 322v1296h235v-1296q0 -43 4.5 -69t15.5 -39t30.5 -18.5t52.5 -5.5q31 0 50 5.5t29.5 18.5t14.5 39t4 69v1296h230v-1296q0 -113 -14.5 -180.5t-51.5 -103.5t-101.5 -47t-164.5 -11q-102 0 -167 11t-101.5 47t-51 103.5t-14.5 180.5z" />
<glyph unicode="V" horiz-adv-x="765" d="M16 1618h242l113 -1325h8l125 1325h244l-205 -1618h-344z" />
<glyph unicode="W" horiz-adv-x="1185" d="M18 1618h236l68 -1272h8l108 1272h301l92 -1272h9l88 1272h237l-188 -1618h-299l-86 1284h-8l-113 -1284h-303z" />
<glyph unicode="X" horiz-adv-x="774" d="M12 0l185 848l-172 770h241l129 -621l115 621h219l-164 -770l193 -848h-244l-135 723l-131 -723h-236z" />
<glyph unicode="Y" horiz-adv-x="724" d="M6 1618h234l116 -731h9l122 731h230l-242 -1047v-571h-235v571z" />
<glyph unicode="Z" horiz-adv-x="643" d="M37 0v205l325 1216h-292v197h530v-160l-317 -1255h321v-203h-567z" />
<glyph unicode="[" horiz-adv-x="526" d="M150 -379v2261h346v-151h-179v-1958h179v-152h-346z" />
<glyph unicode="\" horiz-adv-x="561" d="M8 1769h172l371 -1916h-174z" />
<glyph unicode="]" horiz-adv-x="526" d="M31 -227h178v1958h-178v151h346v-2261h-346v152z" />
<glyph unicode="^" horiz-adv-x="931" d="M53 698l314 920h196l314 -920h-185l-229 701l-225 -701h-185z" />
<glyph unicode="_" horiz-adv-x="811" d="M-2 -94h817v-185h-817v185z" />
<glyph unicode="`" horiz-adv-x="413" d="M29 1649h225l129 -340h-158z" />
<glyph unicode="a" horiz-adv-x="727" d="M74 217v297q0 111 42 162t144 51h39q70 0 98.5 -5t42.5 -13v254q0 68 -17 87t-75 19q-55 0 -69.5 -22.5t-14.5 -83.5v-121h-190v145q0 86 11 137.5t42 79t84 35.5t137 8q92 0 149.5 -8t89 -35.5t44 -79t12.5 -137.5v-987q-37 -10 -112.5 -15t-198.5 -5q-78 0 -128 8 t-79 32.5t-40 71.5t-11 125zM264 268q0 -35 2 -57.5t10.5 -35.5t25.5 -18t46 -5q45 0 65.5 1t26.5 3v401q-14 8 -34.5 10t-55.5 2q-59 0 -72.5 -22.5t-13.5 -85.5v-193z" />
<glyph unicode="b" horiz-adv-x="751" d="M90 0v1618h209v-467q23 41 65 63.5t113 22.5q59 0 98 -13.5t61.5 -43t31 -76.5t8.5 -117v-747q0 -74 -8.5 -122t-31 -77t-61 -40t-100.5 -11q-74 0 -119 22.5t-71 75.5v-88h-195zM293 240q27 -63 92 -64q53 0 70.5 20.5t17.5 82.5v667q0 61 -17.5 82t-70.5 21 q-66 0 -92 -64v-745z" />
<glyph unicode="c" horiz-adv-x="714" d="M74 240v747q0 86 12 137.5t44 79t89 35.5t148 8q86 0 140 -10t85 -38t41 -79t10 -133v-215h-190v193q0 53 -16.5 69.5t-69.5 16.5q-59 0 -75 -16.5t-16 -69.5v-705q0 -53 16.5 -70.5t74.5 -17.5q53 0 69.5 19.5t16.5 68.5v318h190v-338q0 -86 -12.5 -138.5t-44 -79 t-84.5 -34.5t-135 -8q-92 0 -148.5 9t-89.5 36.5t-44 79t-11 135.5z" />
<glyph unicode="d" horiz-adv-x="751" d="M74 240v747q0 72 8 120t30.5 76.5t60.5 41t99 12.5q70 0 112 -22.5t65 -63.5v467h210v-1618h-194v88q-29 -53 -73 -75.5t-118 -22.5q-61 0 -100 11t-61.5 40t-30.5 77t-8 122zM276 279q0 -61 16.5 -82t69.5 -21q66 0 93 64v745q-27 63 -93 64q-53 0 -69.5 -20.5 t-16.5 -82.5v-667z" />
<glyph unicode="e" horiz-adv-x="718" d="M74 240v747q0 86 11 137.5t44 79t90 35.5t148 8q86 0 139 -8t84 -35.5t42 -79t11 -137.5v-446h-364v-289q0 -59 15 -76.5t73 -17.5q55 0 71.5 17.5t16.5 76.5v166h188v-178q0 -86 -11 -137.5t-42 -79t-84 -35.5t-139 -8q-90 0 -147.5 8t-90.5 35.5t-44 79t-11 137.5z M279 709h176v262q0 59 -16.5 75.5t-71.5 16.5q-57 0 -72.5 -16.5t-15.5 -75.5v-262z" />
<glyph unicode="f" horiz-adv-x="495" d="M27 1057v170h75v131q0 135 68 197.5t229 62.5h66v-156h-51q-102 0 -103 -114v-121h156v-170h-156v-1057h-209v1057h-75z" />
<glyph unicode="g" horiz-adv-x="751" d="M74 303v684q0 72 8 120t30.5 76.5t61.5 41t100 12.5q74 0 118 -23.5t73 -76.5v90h194v-1247q0 -150 -64.5 -221.5t-219.5 -71.5h-269v176h220q70 0 96.5 23.5t26.5 93.5v157q-23 -41 -65 -62.5t-112 -21.5q-61 0 -100 13.5t-60.5 42t-29.5 76.5t-8 118zM276 342 q0 -61 16.5 -81.5t69.5 -20.5q66 0 93 63v682q-27 63 -93 64q-53 0 -69.5 -20.5t-16.5 -82.5v-604z" />
<glyph unicode="h" horiz-adv-x="778" d="M90 0v1618h209v-469q45 88 180 88q61 0 102.5 -12.5t67 -41t35.5 -76.5t10 -120v-987h-209v965q0 47 -18 65.5t-72 18.5q-41 0 -62.5 -17.5t-33.5 -46.5v-985h-209z" />
<glyph unicode="i" horiz-adv-x="397" d="M94 0v1227h207v-1227h-207zM94 1405v213h207v-213h-207z" />
<glyph unicode="j" horiz-adv-x="397" d="M-98 -137h98q53 0 75.5 25.5t22.5 91.5v1247h209v-1247q0 -147 -66.5 -220t-224.5 -73h-114v176zM98 1405v213h209v-213h-209z" />
<glyph unicode="k" horiz-adv-x="747" d="M90 0v1618h207v-844h8l172 453h228l-224 -512l250 -715h-233l-193 631h-8v-631h-207z" />
<glyph unicode="l" horiz-adv-x="391" d="M90 0v1618h209v-1618h-209z" />
<glyph unicode="m" horiz-adv-x="1173" d="M90 0v1227h195v-82q23 45 68.5 68.5t123.5 23.5q82 0 128 -22.5t69 -77.5q27 49 73 74.5t123 25.5q61 0 103.5 -12.5t68 -41t35.5 -76.5t10 -120v-987h-208v965q0 47 -18.5 65.5t-72.5 18.5q-39 0 -60 -16.5t-34 -45.5v-987h-209v965q0 47 -18 65.5t-72 18.5 q-41 0 -62.5 -17.5t-33.5 -46.5v-985h-209z" />
<glyph unicode="n" horiz-adv-x="778" d="M90 0v1227h195v-82q23 45 68.5 68.5t123.5 23.5q61 0 103.5 -12.5t68 -41t35.5 -76.5t10 -120v-987h-209v965q0 47 -18 65.5t-72 18.5q-41 0 -62.5 -17.5t-33.5 -46.5v-985h-209z" />
<glyph unicode="o" horiz-adv-x="735" d="M74 240v747q0 86 11 137.5t44 79t90 35.5t148 8q90 0 147 -8t89 -35.5t44 -79t12 -137.5v-747q0 -86 -12 -137.5t-44 -79t-89 -35.5t-147 -8t-147.5 8t-90.5 35.5t-44 79t-11 137.5zM276 260q0 -53 16.5 -70.5t74.5 -17.5q59 0 74.5 19.5t15.5 68.5v705q0 53 -16.5 69.5 t-73.5 16.5t-74 -17.5t-17 -68.5v-705z" />
<glyph unicode="p" horiz-adv-x="751" d="M90 -313v1540h195v-90q27 53 71.5 76.5t118.5 23.5q61 0 100 -12.5t61.5 -41t31 -76.5t8.5 -120v-747q0 -74 -8.5 -122t-31 -77t-60 -40t-99.5 -11q-72 0 -113.5 21.5t-64.5 62.5v-387h-209zM293 240q27 -63 92 -64q53 0 70.5 20.5t17.5 82.5v667q0 61 -17.5 82t-70.5 21 q-66 0 -92 -64v-745z" />
<glyph unicode="q" horiz-adv-x="751" d="M74 240v747q0 72 8 120t30.5 76.5t61.5 41t100 12.5q74 0 118 -23.5t73 -76.5v90h194v-1540h-210v387q-23 -41 -65 -62.5t-112 -21.5q-61 0 -99 12t-60.5 42t-30.5 77t-8 119zM276 279q0 -61 16.5 -82t69.5 -21q66 0 93 64v745q-27 63 -93 64q-53 0 -69.5 -20.5 t-16.5 -82.5v-667z" />
<glyph unicode="r" horiz-adv-x="692" d="M90 0v1227h195v-82q23 41 68.5 66.5t121.5 25.5q106 0 148.5 -53.5t42.5 -196.5v-305h-189v281q0 49 -16.5 67.5t-69.5 18.5q-70 0 -92 -68v-981h-209z" />
<glyph unicode="s" horiz-adv-x="727" d="M70 242v188h204v-166q0 -55 16.5 -72.5t74.5 -17.5q59 0 73.5 18.5t14.5 71.5v150q0 27 -4.5 45t-17.5 32.5t-37.5 27.5t-67.5 30q-41 16 -73 30.5t-56 26.5q-39 20 -63.5 41t-39 47.5t-19.5 60t-5 81.5v149q0 86 12 138.5t44 80t89 35.5t150 8q90 0 147 -8t89 -35.5 t43 -80t11 -138.5v-113h-202v93q0 53 -15.5 70.5t-72.5 17.5q-59 0 -75 -17.5t-16 -70.5v-99q0 -25 3.5 -41t13.5 -30.5t31.5 -26.5t56.5 -27q45 -18 79 -34.5t62 -30.5q45 -23 71.5 -44.5t41 -46t18.5 -52t4 -64.5v-227q0 -86 -11 -138.5t-43 -80t-88 -35.5t-148 -8 q-90 0 -147.5 8t-90.5 35.5t-45 80t-12 138.5z" />
<glyph unicode="t" horiz-adv-x="493" d="M18 1057v170h76v372h209v-372h143v-170h-143v-770q0 -63 20.5 -86t82.5 -23h38v-178h-53q-84 0 -141 15.5t-92 47t-49.5 81t-14.5 116.5v797h-76z" />
<glyph unicode="u" horiz-adv-x="772" d="M82 240v987h209v-967q0 -45 16.5 -64.5t69.5 -19.5q41 0 61.5 17.5t32.5 46.5v987h211v-1227h-197v80q-23 -45 -67.5 -67.5t-120.5 -22.5q-61 0 -103 11t-67 40t-35 77t-10 122z" />
<glyph unicode="v" horiz-adv-x="667" d="M12 1227h219l95 -932h8l102 932h217l-166 -1227h-327z" />
<glyph unicode="w" horiz-adv-x="1097" d="M10 1227h223l64 -918h8l105 918h272l94 -918h8l76 918h223l-170 -1227h-282l-82 932h-8l-105 -932h-284z" />
<glyph unicode="x" horiz-adv-x="694" d="M12 0l170 647l-159 580h217l112 -469l105 469h196l-145 -584l170 -643h-219l-119 545l-117 -545h-211z" />
<glyph unicode="y" horiz-adv-x="778" d="M82 303v924h209v-885q0 -61 20.5 -81.5t73.5 -20.5q35 0 56.5 17t35.5 46v924h209v-1247q0 -150 -65.5 -221.5t-221.5 -71.5h-274v176h223q70 0 97.5 23.5t27.5 93.5v157q-23 -41 -67 -62.5t-113 -21.5q-61 0 -101 11.5t-65 40t-35 76.5t-10 122z" />
<glyph unicode="z" horiz-adv-x="616" d="M31 0v178l338 879h-301v170h507v-158l-327 -893h334v-176h-551z" />
<glyph unicode="{" horiz-adv-x="546" d="M55 664v139h31q104 0 104 112v629q0 94 13.5 158.5t47.5 104.5t92 57.5t151 17.5h22v-149h-22q-41 0 -68 -9.5t-42 -31t-21.5 -57.5t-6.5 -91v-618q0 -76 -22.5 -123t-57.5 -70q35 -23 57.5 -71t22.5 -121v-621q0 -55 6.5 -91t21.5 -57.5t42 -30.5t68 -9h22v-148h-22 q-92 0 -150.5 17.5t-92.5 57.5t-47.5 103.5t-13.5 157.5v631q0 113 -104 113h-31z" />
<glyph unicode="|" horiz-adv-x="466" d="M147 -379v2261h168v-2261h-168z" />
<glyph unicode="}" horiz-adv-x="546" d="M31 -268h22q82 0 109.5 40t27.5 148v621q0 74 23 122t57 70q-35 23 -57.5 70t-22.5 123v618q0 109 -27.5 149t-109.5 40h-22v149h22q92 0 150.5 -17.5t92.5 -57.5t47 -104.5t13 -158.5v-629q0 -113 105 -112h31v-139h-31q-104 0 -105 -113v-631q0 -94 -13 -157.5 t-47 -103.5t-92.5 -57.5t-150.5 -17.5h-22v148z" />
<glyph unicode="~" horiz-adv-x="1048" d="M90 651v174q16 55 74.5 91t140.5 36q51 0 103.5 -18.5t103.5 -42t101.5 -42t99.5 -18.5q88 0 135 39t76 105v-176q-14 -53 -75 -89t-140 -36q-55 0 -109.5 18.5t-106 41t-99.5 41t-93 18.5q-90 0 -135 -40t-76 -102z" />
<glyph unicode="&#xa1;" horiz-adv-x="370" d="M63 0zM64 0l39 1231h162l41 -1231h-242zM76 1348v270h215v-270h-215z" />
<glyph unicode="&#xa2;" horiz-adv-x="729" d="M78 414v790q0 72 8 120t29.5 77t58.5 42t96 17v199h183v-199q57 -4 95 -16t60.5 -41t30.5 -77t8 -122v-248h-190v226q0 55 -15.5 71.5t-70.5 16.5q-59 0 -74.5 -16.5t-15.5 -71.5v-748q0 -53 16 -69.5t74 -16.5q55 0 70.5 16.5t15.5 69.5v328h190v-348q0 -76 -8 -124 t-30.5 -77t-60.5 -42t-95 -15v-197h-183v197q-59 4 -96 17t-58.5 43t-29.5 77t-8 121z" />
<glyph unicode="&#xa3;" horiz-adv-x="819" d="M43 0v197h70v389h-70v170h70v542q0 113 13 179.5t49 102.5t99.5 47t165.5 11q96 0 157.5 -11t97.5 -47t49.5 -102.5t13.5 -179.5v-401h-215v401q0 41 -3 67t-14.5 40t-30 19.5t-49.5 5.5t-50 -5.5t-30.5 -19.5t-14.5 -40t-3 -67v-542h365v-170h-365v-389h414v-197h-719z " />
<glyph unicode="&#xa4;" horiz-adv-x="1060" d="M51 434l174 174q-8 23 -10 55.5t-2 73.5v142q0 39 2 72.5t10 58.5l-172 172l105 104l192 -194q31 14 74 19t108 5q63 0 105.5 -5t71.5 -19l194 194l105 -104l-170 -168q8 -25 11 -59.5t3 -75.5v-142q0 -88 -14 -133l170 -170l-105 -104l-192 192q-29 -14 -72 -18t-107 -4 q-66 0 -109.5 4t-72.5 20l-194 -194zM352 737q0 -35 5 -56.5t23.5 -33.5t54.5 -17t97 -5t97.5 5t54.5 17t23.5 33.5t5.5 56.5v144q0 33 -5.5 54t-23.5 34.5t-54 18.5t-98 5q-61 0 -97 -5t-54.5 -18.5t-23.5 -35t-5 -53.5v-144z" />
<glyph unicode="&#xa5;" horiz-adv-x="811" d="M49 1618h230l120 -670h9l120 670h232l-217 -897h180v-143h-193v-170h193v-146h-193v-262h-247v262h-215v146h215v170h-215v143h202z" />
<glyph unicode="&#xa6;" horiz-adv-x="466" d="M147 -379v909h168v-909h-168zM147 1026v856h168v-856h-168z" />
<glyph unicode="&#xa7;" horiz-adv-x="727" d="M70 129v154h202v-131q0 -59 17.5 -77t72.5 -18q59 0 75 19.5t16 75.5v106q0 31 -4.5 52.5t-18.5 36.5t-41 28.5t-70 32.5q-74 29 -121.5 53t-76.5 53t-40 66.5t-11 95.5v153q0 102 17 149.5t73 70.5q-55 31 -72.5 70.5t-17.5 125.5v135q0 86 11 138.5t44 80t90 35.5 t147 8t147.5 -8t89.5 -35.5t44 -80t12 -138.5v-102h-202v82q0 53 -15.5 70.5t-75.5 17.5q-59 0 -74.5 -18.5t-15.5 -69.5v-78q0 -25 3.5 -42t14.5 -32.5t32.5 -31t60.5 -31.5q90 -39 144.5 -72t83 -67.5t36.5 -76.5t8 -100v-153q0 -84 -16 -127t-51 -68q45 -33 56 -87 t11 -138v-127q0 -88 -11 -140t-43 -80t-89 -36t-150 -8q-90 0 -147 8t-89 36t-44 80t-12 140zM272 707q0 -29 4.5 -46.5t18.5 -30t39.5 -22.5t68.5 -20q35 6 42.5 38.5t7.5 86.5v90q0 59 -18.5 89t-72.5 40q-33 -4 -50 -12.5t-26.5 -27t-11.5 -48t-2 -76.5v-61z" />
<glyph unicode="&#xa8;" horiz-adv-x="765" d="M94 1405v213h207v-213h-207zM463 1405v213h209v-213h-209z" />
<glyph unicode="&#xaa;" horiz-adv-x="552" d="M82 934v162q0 66 29.5 94.5t97.5 28.5h22q43 0 61.5 -2.5t29.5 -6.5v127q0 35 -10.5 43.5t-45.5 8.5t-44 -11.5t-9 -40.5v-71h-131v86q0 49 7 78.5t27.5 45t56.5 20.5t93 5q61 0 99 -5t59.5 -20.5t30 -45t8.5 -78.5v-543q-27 -4 -75 -8t-134 -4q-53 0 -86 5t-52.5 19.5 t-26.5 42t-7 70.5zM213 963q0 -35 9 -45.5t44 -10.5q47 0 56 2v203q-18 6 -56 6q-35 0 -44 -11t-9 -40v-104z" />
<glyph unicode="&#xab;" horiz-adv-x="958" d="M78 453zM78 668v170l319 215v-160l-200 -139l200 -142v-159zM557 668v170l319 215v-160l-200 -139l200 -142v-159z" />
<glyph unicode="&#xac;" horiz-adv-x="1015" d="M90 739v185h836v-879h-185v694h-651z" />
<glyph unicode="&#xad;" horiz-adv-x="421" d="M43 590v184h334v-184h-334z" />
<glyph unicode="&#xaf;" horiz-adv-x="788" d="M94 1450v125h598v-125h-598z" />
<glyph unicode="&#xb0;" horiz-adv-x="690" d="M45 1319q0 66 23.5 124t63.5 101t95.5 68.5t118.5 25.5q61 0 116.5 -25.5t95.5 -68.5t63.5 -101t23.5 -124t-23.5 -123t-63.5 -100t-95 -67.5t-117 -24.5q-63 0 -118.5 24.5t-95.5 67.5t-63.5 100t-23.5 123zM156 1319q0 -41 14 -77t41 -63.5t60.5 -43t74.5 -15.5 q39 0 73 15.5t59.5 43t39.5 63.5t14 77q0 84 -54 142.5t-132 58.5q-41 0 -74.5 -15.5t-60.5 -43t-41 -64.5t-14 -78z" />
<glyph unicode="&#xb1;" horiz-adv-x="1015" d="M90 2v186h834v-186h-834zM90 2zM90 725v186h324v322h184v-322h326v-186h-326v-324h-184v324h-324z" />
<glyph unicode="&#xb2;" horiz-adv-x="634" d="M90 725v311q0 43 4 71t16.5 47.5t35 35.5t59.5 35l119 59q31 16 42 30.5t11 39.5v86q0 39 -11.5 49t-50.5 10q-41 0 -52 -12t-11 -49v-117h-158v117q0 63 9.5 101t34 58.5t67.5 26.5t112 6q70 0 114 -6t68.5 -26.5t33 -57.5t8.5 -100v-90q0 -37 -5.5 -62.5t-17.5 -44 t-33.5 -34t-54.5 -31.5l-127 -64q-31 -16 -41 -30.5t-10 -45.5v-184h123v213h166v-342h-451zM90 725z" />
<glyph unicode="&#xb3;" horiz-adv-x="604" d="M78 713zM78 905v178h155v-178q0 -39 12.5 -50t49.5 -11q39 0 49 13t10 48v150q0 51 -8 69.5t-51 18.5h-90v131h90q41 0 50 11t9 40v113q0 41 -12 51t-49 10q-45 0 -52.5 -13t-7.5 -48v-111h-155v111q0 63 9 101t32.5 58.5t65.5 26.5t108 6q70 0 114 -7t68.5 -26.5 t33.5 -57.5t9 -99v-109q0 -61 -20.5 -87.5t-48.5 -37.5q35 -10 52 -41.5t17 -107.5v-154q0 -61 -9 -99t-33.5 -57.5t-69 -26.5t-113.5 -7q-66 0 -108 6t-65.5 26.5t-32.5 58.5t-9 101z" />
<glyph unicode="&#xb4;" horiz-adv-x="413" d="M29 1309l129 340h225l-195 -340h-159z" />
<glyph unicode="&#xb6;" horiz-adv-x="1202" d="M68 985v303q0 109 13 173.5t50 99t102.5 46t169.5 11.5h705v-1931h-236v1734h-161v-1734h-236v968h-72q-104 0 -169.5 11.5t-102.5 46.5t-50 99.5t-13 172.5zM303 975q0 -41 3 -66.5t14.5 -39t31 -18.5t51.5 -5h72v567h-72q-33 0 -52 -5t-30.5 -19.5t-14.5 -39t-3 -63.5 v-311z" />
<glyph unicode="&#xb7;" horiz-adv-x="395" d="M90 676v270h215v-270h-215zM90 676z" />
<glyph unicode="&#xb8;" horiz-adv-x="366" d="M25 -379l104 338h209l-168 -338h-145z" />
<glyph unicode="&#xb9;" horiz-adv-x="407" d="M57 725zM57 1493v127h256v-895h-161v768h-95z" />
<glyph unicode="&#xba;" horiz-adv-x="557" d="M82 946v406q0 49 8 78.5t29.5 45t59.5 20.5t97 5q61 0 99.5 -5t60 -20.5t28.5 -45t7 -78.5v-406q0 -49 -7 -77.5t-28.5 -45t-59.5 -21.5t-100 -5q-59 0 -97 5t-59.5 21.5t-29.5 45t-8 77.5zM221 958q0 -25 10.5 -32.5t44.5 -7.5q35 0 46.5 9t11.5 31v381q0 25 -11.5 32 t-46.5 7t-45 -8t-10 -31v-381z" />
<glyph unicode="&#xbb;" horiz-adv-x="958" d="M82 453v159l201 142l-201 139v160l319 -215v-170zM82 453zM561 453v159l201 142l-201 139v160l319 -215v-170z" />
<glyph unicode="&#xbc;" horiz-adv-x="1286" d="M57 0zM57 1493v127h256v-895h-161v768h-95zM109 0l676 1618h160l-676 -1618h-160zM735 250v649h148v-522h108v385h166v-385h59v-127h-59v-250h-166v250h-256z" />
<glyph unicode="&#xbd;" horiz-adv-x="1280" d="M57 0zM57 1493v127h256v-895h-161v768h-95zM109 0l676 1618h160l-676 -1618h-160zM735 0v311q0 43 4 71t16.5 47.5t35 35.5t59.5 35l119 59q31 16 42 30.5t11 39.5v86q0 39 -11.5 49t-50.5 10q-41 0 -52 -12t-11 -49v-117h-158v117q0 63 9.5 101t34 58.5t67.5 26.5t112 6 q70 0 114 -6t68.5 -26.5t33 -57.5t8.5 -100v-90q0 -37 -5.5 -62.5t-17.5 -44t-33.5 -34t-54.5 -31.5l-127 -64q-31 -16 -41 -30.5t-10 -45.5v-184h123v213h166v-342h-451z" />
<glyph unicode="&#xbe;" horiz-adv-x="1482" d="M78 0zM78 905v178h155v-178q0 -39 12.5 -50t49.5 -11q39 0 49 13t10 48v150q0 51 -8 69.5t-51 18.5h-90v131h90q41 0 50 11t9 40v113q0 41 -12 51t-49 10q-45 0 -52.5 -13t-7.5 -48v-111h-155v111q0 63 9 101t32.5 58.5t65.5 26.5t108 6q70 0 114 -7t68.5 -26.5 t33.5 -57.5t9 -99v-109q0 -61 -20.5 -87.5t-48.5 -37.5q35 -10 52 -41.5t17 -107.5v-154q0 -61 -9 -99t-33.5 -57.5t-69 -26.5t-113.5 -7q-66 0 -108 6t-65.5 26.5t-32.5 58.5t-9 101zM305 0l676 1618h160l-676 -1618h-160zM932 250v649h148v-522h108v385h166v-385h59v-127 h-59v-250h-166v250h-256z" />
<glyph unicode="&#xbf;" horiz-adv-x="792" d="M59 0zM59 320v145q0 53 3 90t11 67.5t22.5 60.5t39.5 67l141 225q12 18 19.5 32.5t11.5 29t5 32t1 41.5v121h201v-131q0 -49 -3.5 -84t-10.5 -65.5t-19 -58.5t-33 -60l-113 -179q-25 -39 -31.5 -72.5t-6.5 -97.5v-163q0 -41 4 -67t14 -39t29.5 -18t52.5 -5q35 0 54.5 5 t29.5 19t13 40t3 65v204h230v-204q0 -113 -13.5 -179.5t-50.5 -102.5t-101.5 -47t-164.5 -11q-104 0 -170 11t-102.5 47t-51 102.5t-14.5 179.5zM303 1350v268h215v-268h-215z" />
<glyph unicode="&#xc0;" d="M78 0v1298q0 113 13 179.5t50 102.5t101.5 47t165.5 11q100 0 164.5 -12t102.5 -49t52 -103.5t14 -175.5v-1298h-235v360h-199v-360h-229zM78 0zM172 2040h225l129 -340h-158zM307 553h199v745q0 41 -4 67t-14.5 39t-30.5 18t-51 5t-50.5 -5t-31 -18t-14.5 -39t-3 -67 v-745z" />
<glyph unicode="&#xc1;" d="M78 0v1298q0 113 13 179.5t50 102.5t101.5 47t165.5 11q100 0 164.5 -12t102.5 -49t52 -103.5t14 -175.5v-1298h-235v360h-199v-360h-229zM78 0zM295 1700l129 340h225l-195 -340h-159zM307 553h199v745q0 41 -4 67t-14.5 39t-30.5 18t-51 5t-50.5 -5t-31 -18t-14.5 -39 t-3 -67v-745z" />
<glyph unicode="&#xc2;" d="M78 0v1298q0 113 13 179.5t50 102.5t101.5 47t165.5 11q100 0 164.5 -12t102.5 -49t52 -103.5t14 -175.5v-1298h-235v360h-199v-360h-229zM78 0zM113 1700l209 340h178l207 -340h-148l-149 223l-150 -223h-147zM307 553h199v745q0 41 -4 67t-14.5 39t-30.5 18t-51 5 t-50.5 -5t-31 -18t-14.5 -39t-3 -67v-745z" />
<glyph unicode="&#xc3;" d="M78 0v1298q0 113 13 179.5t50 102.5t101.5 47t165.5 11q100 0 164.5 -12t102.5 -49t52 -103.5t14 -175.5v-1298h-235v360h-199v-360h-229zM78 0zM110 1798v149q23 23 59.5 38.5t79.5 15.5t82 -10.5t77 -21.5t77 -21.5t82 -10.5q94 0 141 74v-147q-23 -27 -59.5 -43.5 t-83.5 -16.5q-43 0 -82 10.5t-77 23.5t-77 23.5t-82 10.5q-51 0 -82.5 -20.5t-54.5 -53.5zM307 553h199v745q0 41 -4 67t-14.5 39t-30.5 18t-51 5t-50.5 -5t-31 -18t-14.5 -39t-3 -67v-745z" />
<glyph unicode="&#xc4;" d="M78 0v1298q0 113 13 179.5t50 102.5t101.5 47t165.5 11q100 0 164.5 -12t102.5 -49t52 -103.5t14 -175.5v-1298h-235v360h-199v-360h-229zM78 0zM121 1796v213h207v-213h-207zM307 553h199v745q0 41 -4 67t-14.5 39t-30.5 18t-51 5t-50.5 -5t-31 -18t-14.5 -39t-3 -67 v-745zM490 1796v213h209v-213h-209z" />
<glyph unicode="&#xc5;" d="M78 0v1298q0 113 13 179.5t50 102.5t101.5 47t165.5 11q100 0 164.5 -12t102.5 -49t52 -103.5t14 -175.5v-1298h-235v360h-199v-360h-229zM78 0zM244 1818v82q0 45 7.5 73t25.5 43t50 19.5t83 4.5t84 -4.5t51.5 -19.5t25.5 -43t7 -73v-82q0 -47 -7 -73.5t-25.5 -42 t-51.5 -19.5t-84 -4t-83 4t-50 19.5t-25.5 42t-7.5 73.5zM307 553h199v745q0 41 -4 67t-14.5 39t-30.5 18t-51 5t-50.5 -5t-31 -18t-14.5 -39t-3 -67v-745zM330 1827q0 -41 15.5 -50.5t64.5 -9.5q51 0 66.5 9.5t15.5 50.5v65q0 41 -15.5 50.5t-66.5 9.5q-49 0 -64.5 -9.5 t-15.5 -50.5v-65z" />
<glyph unicode="&#xc6;" horiz-adv-x="999" d="M78 0v1288q0 113 13 178.5t50 99t101.5 43t165.5 9.5h495v-197h-219v-233h213v-189h-213v-798h221v-201h-450v360h-148v-360h-229zM307 553h148v868h-49q-31 0 -50.5 -4t-31 -17.5t-14.5 -38t-3 -65.5v-743z" />
<glyph unicode="&#xc7;" horiz-adv-x="808" d="M74 0zM74 322v976q0 111 14 178.5t52 103.5t103.5 47t166.5 11q98 0 161.5 -11t100.5 -47t50 -102.5t13 -179.5v-366h-227v366q0 41 -3 67t-14.5 39t-31 18t-49.5 5q-33 0 -52.5 -5t-31 -19t-14.5 -40t-3 -65v-976q0 -43 3 -69t14.5 -40t31 -19.5t52.5 -5.5q31 0 50 5.5 t30.5 19.5t14.5 40t3 69v374h227v-374q0 -113 -13 -180.5t-50 -103.5t-100.5 -47t-161.5 -11q-104 0 -170 11t-103 47t-50 103.5t-13 180.5zM207 -379l104 338h209l-168 -338h-145z" />
<glyph unicode="&#xc8;" horiz-adv-x="602" d="M82 0zM82 2040h225l129 -340h-158zM90 0v1618h461v-195h-225v-235h219v-187h-219v-798h227v-203h-463z" />
<glyph unicode="&#xc9;" horiz-adv-x="602" d="M90 0v1618h461v-195h-225v-235h219v-187h-219v-798h227v-203h-463zM90 0zM205 1700l129 340h225l-195 -340h-159z" />
<glyph unicode="&#xca;" horiz-adv-x="602" d="M27 0zM27 1700l209 340h178l207 -340h-148l-149 223l-150 -223h-147zM90 0v1618h461v-195h-225v-235h219v-187h-219v-798h227v-203h-463z" />
<glyph unicode="&#xcb;" horiz-adv-x="602" d="M35 0zM35 1796v213h207v-213h-207zM90 0v1618h461v-195h-225v-235h219v-187h-219v-798h227v-203h-463zM404 1796v213h209v-213h-209z" />
<glyph unicode="&#xcc;" horiz-adv-x="425" d="M-22 2040h225l129 -340h-158zM0 0zM94 0v1618h236v-1618h-236z" />
<glyph unicode="&#xcd;" horiz-adv-x="425" d="M94 0v1618h236v-1618h-236zM94 0zM97 1700l129 340h225l-195 -340h-159z" />
<glyph unicode="&#xce;" horiz-adv-x="425" d="M-82 1700l209 340h178l207 -340h-148l-149 223l-150 -223h-147zM0 0zM94 0v1618h236v-1618h-236z" />
<glyph unicode="&#xcf;" horiz-adv-x="425" d="M-74 1796v213h207v-213h-207zM0 0zM94 0v1618h236v-1618h-236zM295 1796v213h209v-213h-209z" />
<glyph unicode="&#xd0;" horiz-adv-x="882" d="M78 1001v187h55v430h338q104 0 170 -11.5t102.5 -46t50 -99t13.5 -173.5v-956q0 -109 -13.5 -174.5t-50 -100t-102.5 -46t-170 -11.5h-338v1001h-55zM362 205h115q33 0 52.5 4t30.5 18.5t15.5 39t4.5 65.5v956q0 80 -19.5 103.5t-83.5 23.5h-115v-227h111v-187h-111v-796 z" />
<glyph unicode="&#xd1;" horiz-adv-x="888" d="M90 0v1618h260l234 -1038h8v1038h205v-1618h-252l-244 1010h-8v-1010h-203zM90 0zM145 1798v149q23 23 59.5 38.5t79.5 15.5t82 -10.5t77 -21.5t77 -21.5t82 -10.5q94 0 141 74v-147q-23 -27 -59.5 -43.5t-83.5 -16.5q-43 0 -82 10.5t-77 23.5t-77 23.5t-82 10.5 q-51 0 -82.5 -20.5t-54.5 -53.5z" />
<glyph unicode="&#xd2;" d="M74 0zM74 322v976q0 113 13 179.5t50 102.5t102.5 47t170.5 11q104 0 169.5 -11t103.5 -47t51.5 -102.5t13.5 -179.5v-976q0 -113 -13.5 -180.5t-51.5 -103.5t-103.5 -47t-169.5 -11t-170 11t-103 47t-50 103.5t-13 180.5zM172 2040h225l129 -340h-158zM309 322 q0 -43 3 -69t14.5 -40t31 -19.5t52.5 -5.5t52 5.5t30.5 20.5t14.5 41t3 67v976q0 82 -18.5 105.5t-81.5 23.5q-33 0 -52.5 -5t-31 -19t-14.5 -40t-3 -65v-976z" />
<glyph unicode="&#xd3;" d="M74 0zM74 322v976q0 113 13 179.5t50 102.5t102.5 47t170.5 11q104 0 169.5 -11t103.5 -47t51.5 -102.5t13.5 -179.5v-976q0 -113 -13.5 -180.5t-51.5 -103.5t-103.5 -47t-169.5 -11t-170 11t-103 47t-50 103.5t-13 180.5zM295 1700l129 340h225l-195 -340h-159zM309 322 q0 -43 3 -69t14.5 -40t31 -19.5t52.5 -5.5t52 5.5t30.5 20.5t14.5 41t3 67v976q0 82 -18.5 105.5t-81.5 23.5q-33 0 -52.5 -5t-31 -19t-14.5 -40t-3 -65v-976z" />
<glyph unicode="&#xd4;" d="M74 0zM74 322v976q0 113 13 179.5t50 102.5t102.5 47t170.5 11q104 0 169.5 -11t103.5 -47t51.5 -102.5t13.5 -179.5v-976q0 -113 -13.5 -180.5t-51.5 -103.5t-103.5 -47t-169.5 -11t-170 11t-103 47t-50 103.5t-13 180.5zM113 1700l209 340h178l207 -340h-148l-149 223 l-150 -223h-147zM309 322q0 -43 3 -69t14.5 -40t31 -19.5t52.5 -5.5t52 5.5t30.5 20.5t14.5 41t3 67v976q0 82 -18.5 105.5t-81.5 23.5q-33 0 -52.5 -5t-31 -19t-14.5 -40t-3 -65v-976z" />
<glyph unicode="&#xd5;" d="M74 0zM74 322v976q0 113 13 179.5t50 102.5t102.5 47t170.5 11q104 0 169.5 -11t103.5 -47t51.5 -102.5t13.5 -179.5v-976q0 -113 -13.5 -180.5t-51.5 -103.5t-103.5 -47t-169.5 -11t-170 11t-103 47t-50 103.5t-13 180.5zM110 1798v149q23 23 59.5 38.5t79.5 15.5 t82 -10.5t77 -21.5t77 -21.5t82 -10.5q94 0 141 74v-147q-23 -27 -59.5 -43.5t-83.5 -16.5q-43 0 -82 10.5t-77 23.5t-77 23.5t-82 10.5q-51 0 -82.5 -20.5t-54.5 -53.5zM309 322q0 -43 3 -69t14.5 -40t31 -19.5t52.5 -5.5t52 5.5t30.5 20.5t14.5 41t3 67v976 q0 82 -18.5 105.5t-81.5 23.5q-33 0 -52.5 -5t-31 -19t-14.5 -40t-3 -65v-976z" />
<glyph unicode="&#xd6;" d="M74 0zM74 322v976q0 113 13 179.5t50 102.5t102.5 47t170.5 11q104 0 169.5 -11t103.5 -47t51.5 -102.5t13.5 -179.5v-976q0 -113 -13.5 -180.5t-51.5 -103.5t-103.5 -47t-169.5 -11t-170 11t-103 47t-50 103.5t-13 180.5zM121 1796v213h207v-213h-207zM309 322 q0 -43 3 -69t14.5 -40t31 -19.5t52.5 -5.5t52 5.5t30.5 20.5t14.5 41t3 67v976q0 82 -18.5 105.5t-81.5 23.5q-33 0 -52.5 -5t-31 -19t-14.5 -40t-3 -65v-976zM490 1796v213h209v-213h-209z" />
<glyph unicode="&#xd7;" horiz-adv-x="989" d="M133 588l232 231l-230 228l129 131l232 -230l227 230l131 -131l-229 -228l229 -231l-131 -131l-227 231l-232 -231z" />
<glyph unicode="&#xd8;" d="M74 -141l53 190q-31 37 -42 102.5t-11 170.5v976q0 113 13 179.5t50 102.5t102.5 47t170.5 11q47 0 86 -2t71 -6l37 131h144l-54 -192q31 -37 42.5 -101.5t11.5 -169.5v-976q0 -113 -13.5 -180.5t-51.5 -103.5t-103.5 -47t-169.5 -11q-47 0 -86 3t-72 7l-35 -131h-143z M309 702l191 687q-10 23 -29.5 30.5t-60.5 7.5q-33 0 -52.5 -5t-31 -19t-14.5 -40t-3 -65v-596zM319 225q10 -23 31 -30t60 -7q33 0 52 5.5t30.5 20.5t14.5 41t3 67v587z" />
<glyph unicode="&#xd9;" horiz-adv-x="829" d="M82 0zM82 322v1296h235v-1296q0 -43 4.5 -69t15.5 -39t30.5 -18.5t52.5 -5.5q31 0 50 5.5t29.5 18.5t14.5 39t4 69v1296h230v-1296q0 -113 -14.5 -180.5t-51.5 -103.5t-101.5 -47t-164.5 -11q-102 0 -167 11t-101.5 47t-51 103.5t-14.5 180.5zM176 2040h225l129 -340 h-158z" />
<glyph unicode="&#xda;" horiz-adv-x="829" d="M82 0zM82 322v1296h235v-1296q0 -43 4.5 -69t15.5 -39t30.5 -18.5t52.5 -5.5q31 0 50 5.5t29.5 18.5t14.5 39t4 69v1296h230v-1296q0 -113 -14.5 -180.5t-51.5 -103.5t-101.5 -47t-164.5 -11q-102 0 -167 11t-101.5 47t-51 103.5t-14.5 180.5zM299 1700l129 340h225 l-195 -340h-159z" />
<glyph unicode="&#xdb;" horiz-adv-x="829" d="M82 0zM82 322v1296h235v-1296q0 -43 4.5 -69t15.5 -39t30.5 -18.5t52.5 -5.5q31 0 50 5.5t29.5 18.5t14.5 39t4 69v1296h230v-1296q0 -113 -14.5 -180.5t-51.5 -103.5t-101.5 -47t-164.5 -11q-102 0 -167 11t-101.5 47t-51 103.5t-14.5 180.5zM117 1700l209 340h178 l207 -340h-148l-149 223l-150 -223h-147z" />
<glyph unicode="&#xdc;" horiz-adv-x="829" d="M82 0zM82 322v1296h235v-1296q0 -43 4.5 -69t15.5 -39t30.5 -18.5t52.5 -5.5q31 0 50 5.5t29.5 18.5t14.5 39t4 69v1296h230v-1296q0 -113 -14.5 -180.5t-51.5 -103.5t-101.5 -47t-164.5 -11q-102 0 -167 11t-101.5 47t-51 103.5t-14.5 180.5zM125 1796v213h207v-213 h-207zM494 1796v213h209v-213h-209z" />
<glyph unicode="&#xdd;" horiz-adv-x="724" d="M6 0zM6 1618h234l116 -731h9l122 731h230l-242 -1047v-571h-235v571zM246 1700l129 340h225l-195 -340h-159z" />
<glyph unicode="&#xde;" horiz-adv-x="813" d="M90 0v1618h236v-236h100q104 0 170 -11t103.5 -46t51 -99.5t13.5 -172.5v-346q0 -109 -13.5 -173.5t-51 -99.5t-103.5 -46t-170 -11h-100v-377h-236zM326 567h100q33 0 52.5 4t29.5 18.5t14 40t4 68.5v355q0 41 -4 65.5t-14 37.5t-30.5 17.5t-51.5 4.5h-100v-611z" />
<glyph unicode="&#xdf;" horiz-adv-x="808" d="M78 0v1370q0 80 18.5 132t55 83t94 42t135.5 11q90 0 154.5 -11t104.5 -39.5t58.5 -82t18.5 -135.5v-268q0 -63 -11.5 -103.5t-31 -65t-43 -35.5t-47.5 -17v-9q33 -6 61.5 -20t49 -42t32.5 -74t12 -115v-304q0 -98 -12 -159.5t-45 -96t-90 -48t-148 -13.5h-106v209h80 q49 0 70.5 22.5t21.5 85.5v345q0 68 -21.5 89t-82.5 21h-76v209h59q61 0 79.5 23.5t18.5 76.5v279q0 61 -17 81.5t-81 20.5q-66 0 -84 -20.5t-18 -81.5v-1360h-209z" />
<glyph unicode="&#xe0;" horiz-adv-x="727" d="M74 0zM74 217v297q0 111 42 162t144 51h39q70 0 98.5 -5t42.5 -13v254q0 68 -17 87t-75 19q-55 0 -69.5 -22.5t-14.5 -83.5v-121h-190v145q0 86 11 137.5t42 79t84 35.5t137 8q92 0 149.5 -8t89 -35.5t44 -79t12.5 -137.5v-987q-37 -10 -112.5 -15t-198.5 -5 q-78 0 -128 8t-79 32.5t-40 71.5t-11 125zM125 1649h225l129 -340h-158zM264 268q0 -35 2 -57.5t10.5 -35.5t25.5 -18t46 -5q45 0 65.5 1t26.5 3v401q-14 8 -34.5 10t-55.5 2q-59 0 -72.5 -22.5t-13.5 -85.5v-193z" />
<glyph unicode="&#xe1;" horiz-adv-x="727" d="M74 0zM74 217v297q0 111 42 162t144 51h39q70 0 98.5 -5t42.5 -13v254q0 68 -17 87t-75 19q-55 0 -69.5 -22.5t-14.5 -83.5v-121h-190v145q0 86 11 137.5t42 79t84 35.5t137 8q92 0 149.5 -8t89 -35.5t44 -79t12.5 -137.5v-987q-37 -10 -112.5 -15t-198.5 -5 q-78 0 -128 8t-79 32.5t-40 71.5t-11 125zM248 1309l129 340h225l-195 -340h-159zM264 268q0 -35 2 -57.5t10.5 -35.5t25.5 -18t46 -5q45 0 65.5 1t26.5 3v401q-14 8 -34.5 10t-55.5 2q-59 0 -72.5 -22.5t-13.5 -85.5v-193z" />
<glyph unicode="&#xe2;" horiz-adv-x="727" d="M66 0zM66 1309l209 340h178l207 -340h-148l-149 223l-150 -223h-147zM74 217v297q0 111 42 162t144 51h39q70 0 98.5 -5t42.5 -13v254q0 68 -17 87t-75 19q-55 0 -69.5 -22.5t-14.5 -83.5v-121h-190v145q0 86 11 137.5t42 79t84 35.5t137 8q92 0 149.5 -8t89 -35.5 t44 -79t12.5 -137.5v-987q-37 -10 -112.5 -15t-198.5 -5q-78 0 -128 8t-79 32.5t-40 71.5t-11 125zM264 268q0 -35 2 -57.5t10.5 -35.5t25.5 -18t46 -5q45 0 65.5 1t26.5 3v401q-14 8 -34.5 10t-55.5 2q-59 0 -72.5 -22.5t-13.5 -85.5v-193z" />
<glyph unicode="&#xe3;" horiz-adv-x="727" d="M67 1407v149q23 23 59.5 38.5t79.5 15.5t82 -10.5t77 -21.5t77 -21.5t82 -10.5q94 0 141 74v-147q-23 -27 -59.5 -43.5t-83.5 -16.5q-43 0 -82 10.5t-77 23.5t-77 23.5t-82 10.5q-51 0 -82.5 -20.5t-54.5 -53.5zM68 0zM74 217v297q0 111 42 162t144 51h39q70 0 98.5 -5 t42.5 -13v254q0 68 -17 87t-75 19q-55 0 -69.5 -22.5t-14.5 -83.5v-121h-190v145q0 86 11 137.5t42 79t84 35.5t137 8q92 0 149.5 -8t89 -35.5t44 -79t12.5 -137.5v-987q-37 -10 -112.5 -15t-198.5 -5q-78 0 -128 8t-79 32.5t-40 71.5t-11 125zM264 268q0 -35 2 -57.5 t10.5 -35.5t25.5 -18t46 -5q45 0 65.5 1t26.5 3v401q-14 8 -34.5 10t-55.5 2q-59 0 -72.5 -22.5t-13.5 -85.5v-193z" />
<glyph unicode="&#xe4;" horiz-adv-x="727" d="M74 0zM74 217v297q0 111 42 162t144 51h39q70 0 98.5 -5t42.5 -13v254q0 68 -17 87t-75 19q-55 0 -69.5 -22.5t-14.5 -83.5v-121h-190v145q0 86 11 137.5t42 79t84 35.5t137 8q92 0 149.5 -8t89 -35.5t44 -79t12.5 -137.5v-987q-37 -10 -112.5 -15t-198.5 -5 q-78 0 -128 8t-79 32.5t-40 71.5t-11 125zM78 1405v213h207v-213h-207zM264 268q0 -35 2 -57.5t10.5 -35.5t25.5 -18t46 -5q45 0 65.5 1t26.5 3v401q-14 8 -34.5 10t-55.5 2q-59 0 -72.5 -22.5t-13.5 -85.5v-193zM447 1405v213h209v-213h-209z" />
<glyph unicode="&#xe5;" horiz-adv-x="727" d="M74 0zM74 217v297q0 111 42 162t144 51h39q70 0 98.5 -5t42.5 -13v254q0 68 -17 87t-75 19q-55 0 -69.5 -22.5t-14.5 -83.5v-121h-190v145q0 86 11 137.5t42 79t84 35.5t137 8q92 0 149.5 -8t89 -35.5t44 -79t12.5 -137.5v-987q-37 -10 -112.5 -15t-198.5 -5 q-78 0 -128 8t-79 32.5t-40 71.5t-11 125zM196 1427v82q0 45 7.5 73t25.5 43t50 19.5t83 4.5t84 -4.5t51.5 -19.5t25.5 -43t7 -73v-82q0 -47 -7 -73.5t-25.5 -42t-51.5 -19.5t-84 -4t-83 4t-50 19.5t-25.5 42t-7.5 73.5zM264 268q0 -35 2 -57.5t10.5 -35.5t25.5 -18t46 -5 q45 0 65.5 1t26.5 3v401q-14 8 -34.5 10t-55.5 2q-59 0 -72.5 -22.5t-13.5 -85.5v-193zM282 1436q0 -41 15.5 -50.5t64.5 -9.5q51 0 66.5 9.5t15.5 50.5v65q0 41 -15.5 50.5t-66.5 9.5q-49 0 -64.5 -9.5t-15.5 -50.5v-65z" />
<glyph unicode="&#xe6;" horiz-adv-x="1087" d="M74 217v297q0 111 42 162t144 51h39q70 0 98.5 -5t42.5 -13v254q0 68 -17 87t-75 19q-55 0 -69.5 -22.5t-14.5 -83.5v-121h-190v145q0 86 11 137.5t42 79t84 35.5t137 8t127 -17.5t66 -45.5q23 29 66.5 46t125.5 17q86 0 139.5 -8t84 -35.5t42 -79t11.5 -137.5v-446h-367 v-295q0 -47 15.5 -67.5t74.5 -20.5q57 0 71.5 18.5t14.5 75.5v166h191v-178q0 -86 -11.5 -137.5t-42 -79t-84 -35.5t-139.5 -8q-86 4 -130 19t-64 42q-25 -29 -71 -45t-132 -16q-80 0 -131 8t-80 32.5t-40 71.5t-11 125zM264 268q0 -35 2 -57.5t11.5 -35.5t25.5 -18t47 -5 q59 0 74.5 19t15.5 69v317q-14 8 -34.5 10t-55.5 2q-59 0 -72.5 -22.5t-13.5 -85.5v-193zM643 707h176v264q0 57 -16.5 74.5t-69.5 17.5q-59 0 -74.5 -17.5t-15.5 -74.5v-264z" />
<glyph unicode="&#xe7;" horiz-adv-x="714" d="M74 0zM74 240v747q0 86 12 137.5t44 79t89 35.5t148 8q86 0 140 -10t85 -38t41 -79t10 -133v-215h-190v193q0 53 -16.5 69.5t-69.5 16.5q-59 0 -75 -16.5t-16 -69.5v-705q0 -53 16.5 -70.5t74.5 -17.5q53 0 69.5 19.5t16.5 68.5v318h190v-338q0 -86 -12.5 -138.5t-44 -79 t-84.5 -34.5t-135 -8q-92 0 -148.5 9t-89.5 36.5t-44 79t-11 135.5zM144 -379l104 338h209l-168 -338h-145z" />
<glyph unicode="&#xe8;" horiz-adv-x="718" d="M74 0zM74 240v747q0 86 11 137.5t44 79t90 35.5t148 8q86 0 139 -8t84 -35.5t42 -79t11 -137.5v-446h-364v-289q0 -59 15 -76.5t73 -17.5q55 0 71.5 17.5t16.5 76.5v166h188v-178q0 -86 -11 -137.5t-42 -79t-84 -35.5t-139 -8q-90 0 -147.5 8t-90.5 35.5t-44 79 t-11 137.5zM121 1649h225l129 -340h-158zM279 709h176v262q0 59 -16.5 75.5t-71.5 16.5q-57 0 -72.5 -16.5t-15.5 -75.5v-262z" />
<glyph unicode="&#xe9;" horiz-adv-x="718" d="M74 0zM74 240v747q0 86 11 137.5t44 79t90 35.5t148 8q86 0 139 -8t84 -35.5t42 -79t11 -137.5v-446h-364v-289q0 -59 15 -76.5t73 -17.5q55 0 71.5 17.5t16.5 76.5v166h188v-178q0 -86 -11 -137.5t-42 -79t-84 -35.5t-139 -8q-90 0 -147.5 8t-90.5 35.5t-44 79 t-11 137.5zM244 1309l129 340h225l-195 -340h-159zM279 709h176v262q0 59 -16.5 75.5t-71.5 16.5q-57 0 -72.5 -16.5t-15.5 -75.5v-262z" />
<glyph unicode="&#xea;" horiz-adv-x="718" d="M61 0zM62 1309l209 340h178l207 -340h-148l-149 223l-150 -223h-147zM74 240v747q0 86 11 137.5t44 79t90 35.5t148 8q86 0 139 -8t84 -35.5t42 -79t11 -137.5v-446h-364v-289q0 -59 15 -76.5t73 -17.5q55 0 71.5 17.5t16.5 76.5v166h188v-178q0 -86 -11 -137.5t-42 -79 t-84 -35.5t-139 -8q-90 0 -147.5 8t-90.5 35.5t-44 79t-11 137.5zM279 709h176v262q0 59 -16.5 75.5t-71.5 16.5q-57 0 -72.5 -16.5t-15.5 -75.5v-262z" />
<glyph unicode="&#xeb;" horiz-adv-x="718" d="M74 0zM74 240v747q0 86 11 137.5t44 79t90 35.5t148 8q86 0 139 -8t84 -35.5t42 -79t11 -137.5v-446h-364v-289q0 -59 15 -76.5t73 -17.5q55 0 71.5 17.5t16.5 76.5v166h188v-178q0 -86 -11 -137.5t-42 -79t-84 -35.5t-139 -8q-90 0 -147.5 8t-90.5 35.5t-44 79 t-11 137.5zM74 1405v213h207v-213h-207zM279 709h176v262q0 59 -16.5 75.5t-71.5 16.5q-57 0 -72.5 -16.5t-15.5 -75.5v-262zM443 1405v213h209v-213h-209z" />
<glyph unicode="&#xec;" horiz-adv-x="411" d="M-22 1649h225l129 -340h-158zM0 0zM108 0v1227h207v-1227h-207z" />
<glyph unicode="&#xed;" horiz-adv-x="432" d="M82 0zM82 1309l129 340h225l-195 -340h-159zM94 0v1227h207v-1227h-207z" />
<glyph unicode="&#xee;" horiz-adv-x="544" d="M-22 1309l209 340h178l207 -340h-148l-149 223l-150 -223h-147zM0 0zM168 0v1227h207v-1227h-207z" />
<glyph unicode="&#xef;" horiz-adv-x="579" d="M2 0zM2 1405v213h207v-213h-207zM184 0v1227h207v-1227h-207zM371 1405v213h209v-213h-209z" />
<glyph unicode="&#xf0;" horiz-adv-x="737" d="M76 240v616q0 123 33.5 179.5t126.5 56.5q61 0 98 -16.5t84 -57.5q-4 12 -9.5 22.5t-12.5 24.5t-18 34.5t-30 53.5l-61 109l-150 -84l-51 98l145 80l-149 262h229l92 -166l140 78l51 -96l-137 -76l73 -129q43 -78 69 -133.5t40 -103.5t18.5 -97t4.5 -111v-544 q0 -86 -12.5 -137.5t-44.5 -79t-89 -35.5t-147 -8t-147.5 8t-90.5 35.5t-44 79t-11 137.5zM281 319q0 -45 1 -73.5t9 -45t26.5 -22.5t51.5 -6q29 0 47 6t27.5 22.5t12.5 45t3 71.5v510q-14 53 -33 81t-72 28q-55 0 -64 -35t-9 -104v-478z" />
<glyph unicode="&#xf1;" horiz-adv-x="778" d="M90 0v1227h195v-82q23 45 68.5 68.5t123.5 23.5q61 0 103.5 -12.5t68 -41t35.5 -76.5t10 -120v-987h-209v965q0 47 -18 65.5t-72 18.5q-41 0 -62.5 -17.5t-33.5 -46.5v-985h-209zM90 0zM92 1407v149q23 23 59.5 38.5t79.5 15.5t82 -10.5t77 -21.5t77 -21.5t82 -10.5 q94 0 141 74v-147q-23 -27 -59.5 -43.5t-83.5 -16.5q-43 0 -82 10.5t-77 23.5t-77 23.5t-82 10.5q-51 0 -82.5 -20.5t-54.5 -53.5z" />
<glyph unicode="&#xf2;" horiz-adv-x="735" d="M74 0zM74 240v747q0 86 11 137.5t44 79t90 35.5t148 8q90 0 147 -8t89 -35.5t44 -79t12 -137.5v-747q0 -86 -12 -137.5t-44 -79t-89 -35.5t-147 -8t-147.5 8t-90.5 35.5t-44 79t-11 137.5zM129 1649h225l129 -340h-158zM276 260q0 -53 16.5 -70.5t74.5 -17.5 q59 0 74.5 19.5t15.5 68.5v705q0 53 -16.5 69.5t-73.5 16.5t-74 -17.5t-17 -68.5v-705z" />
<glyph unicode="&#xf3;" horiz-adv-x="735" d="M74 0zM74 240v747q0 86 11 137.5t44 79t90 35.5t148 8q90 0 147 -8t89 -35.5t44 -79t12 -137.5v-747q0 -86 -12 -137.5t-44 -79t-89 -35.5t-147 -8t-147.5 8t-90.5 35.5t-44 79t-11 137.5zM252 1309l129 340h225l-195 -340h-159zM276 260q0 -53 16.5 -70.5t74.5 -17.5 q59 0 74.5 19.5t15.5 68.5v705q0 53 -16.5 69.5t-73.5 16.5t-74 -17.5t-17 -68.5v-705z" />
<glyph unicode="&#xf4;" horiz-adv-x="735" d="M70 0zM70 1309l209 340h178l207 -340h-148l-149 223l-150 -223h-147zM74 240v747q0 86 11 137.5t44 79t90 35.5t148 8q90 0 147 -8t89 -35.5t44 -79t12 -137.5v-747q0 -86 -12 -137.5t-44 -79t-89 -35.5t-147 -8t-147.5 8t-90.5 35.5t-44 79t-11 137.5zM276 260 q0 -53 16.5 -70.5t74.5 -17.5q59 0 74.5 19.5t15.5 68.5v705q0 53 -16.5 69.5t-73.5 16.5t-74 -17.5t-17 -68.5v-705z" />
<glyph unicode="&#xf5;" horiz-adv-x="735" d="M71 1407v149q23 23 59.5 38.5t79.5 15.5t82 -10.5t77 -21.5t77 -21.5t82 -10.5q94 0 141 74v-147q-23 -27 -59.5 -43.5t-83.5 -16.5q-43 0 -82 10.5t-77 23.5t-77 23.5t-82 10.5q-51 0 -82.5 -20.5t-54.5 -53.5zM72 0zM74 240v747q0 86 11 137.5t44 79t90 35.5t148 8 q90 0 147 -8t89 -35.5t44 -79t12 -137.5v-747q0 -86 -12 -137.5t-44 -79t-89 -35.5t-147 -8t-147.5 8t-90.5 35.5t-44 79t-11 137.5zM276 260q0 -53 16.5 -70.5t74.5 -17.5q59 0 74.5 19.5t15.5 68.5v705q0 53 -16.5 69.5t-73.5 16.5t-74 -17.5t-17 -68.5v-705z" />
<glyph unicode="&#xf6;" horiz-adv-x="735" d="M74 0zM74 240v747q0 86 11 137.5t44 79t90 35.5t148 8q90 0 147 -8t89 -35.5t44 -79t12 -137.5v-747q0 -86 -12 -137.5t-44 -79t-89 -35.5t-147 -8t-147.5 8t-90.5 35.5t-44 79t-11 137.5zM82 1405v213h207v-213h-207zM276 260q0 -53 16.5 -70.5t74.5 -17.5 q59 0 74.5 19.5t15.5 68.5v705q0 53 -16.5 69.5t-73.5 16.5t-74 -17.5t-17 -68.5v-705zM451 1405v213h209v-213h-209z" />
<glyph unicode="&#xf7;" horiz-adv-x="1015" d="M90 250zM90 725v186h834v-186h-834zM399 250v270h215v-270h-215zM399 1116v270h215v-270h-215z" />
<glyph unicode="&#xf8;" horiz-adv-x="735" d="M74 -141l49 170q-29 29 -39 78t-10 133v747q0 86 11 137.5t44 79t90 35.5t148 8q31 0 58.5 -1t51.5 -3l37 125h145l-51 -172q29 -29 40 -78t11 -131v-747q0 -86 -12 -137.5t-44 -79t-89 -35.5t-147 -8q-33 0 -60.5 1t-50.5 3l-37 -125h-145zM276 553l144 491q-23 6 -53 7 q-57 0 -74 -17.5t-17 -68.5v-412zM311 176q10 -4 23.5 -4h32.5q59 0 74.5 19.5t15.5 68.5v412z" />
<glyph unicode="&#xf9;" horiz-adv-x="772" d="M82 0zM82 240v987h209v-967q0 -45 16.5 -64.5t69.5 -19.5q41 0 61.5 17.5t32.5 46.5v987h211v-1227h-197v80q-23 -45 -67.5 -67.5t-120.5 -22.5q-61 0 -103 11t-67 40t-35 77t-10 122zM148 1649h225l129 -340h-158z" />
<glyph unicode="&#xfa;" horiz-adv-x="772" d="M82 0zM82 240v987h209v-967q0 -45 16.5 -64.5t69.5 -19.5q41 0 61.5 17.5t32.5 46.5v987h211v-1227h-197v80q-23 -45 -67.5 -67.5t-120.5 -22.5q-61 0 -103 11t-67 40t-35 77t-10 122zM271 1309l129 340h225l-195 -340h-159z" />
<glyph unicode="&#xfb;" horiz-adv-x="772" d="M82 0zM82 240v987h209v-967q0 -45 16.5 -64.5t69.5 -19.5q41 0 61.5 17.5t32.5 46.5v987h211v-1227h-197v80q-23 -45 -67.5 -67.5t-120.5 -22.5q-61 0 -103 11t-67 40t-35 77t-10 122zM88 1309l209 340h178l207 -340h-148l-149 223l-150 -223h-147z" />
<glyph unicode="&#xfc;" horiz-adv-x="772" d="M82 0zM82 240v987h209v-967q0 -45 16.5 -64.5t69.5 -19.5q41 0 61.5 17.5t32.5 46.5v987h211v-1227h-197v80q-23 -45 -67.5 -67.5t-120.5 -22.5q-61 0 -103 11t-67 40t-35 77t-10 122zM96 1405v213h207v-213h-207zM465 1405v213h209v-213h-209z" />
<glyph unicode="&#xfd;" horiz-adv-x="778" d="M82 0zM82 303v924h209v-885q0 -61 20.5 -81.5t73.5 -20.5q35 0 56.5 17t35.5 46v924h209v-1247q0 -150 -65.5 -221.5t-221.5 -71.5h-274v176h223q70 0 97.5 23.5t27.5 93.5v157q-23 -41 -67 -62.5t-113 -21.5q-61 0 -101 11.5t-65 40t-35 76.5t-10 122zM273 1309l129 340 h225l-195 -340h-159z" />
<glyph unicode="&#xfe;" horiz-adv-x="751" d="M90 -313v1931h209v-467q23 41 65 63.5t113 22.5q61 0 99 -12.5t60.5 -41t31 -76.5t8.5 -120v-747q0 -74 -8.5 -122t-31 -77t-60 -40t-99.5 -11q-72 0 -113.5 21.5t-64.5 62.5v-387h-209zM293 240q27 -63 92 -64q53 0 70.5 20.5t17.5 82.5v667q0 61 -17.5 82t-70.5 21 q-66 0 -92 -64v-745z" />
<glyph unicode="&#xff;" horiz-adv-x="778" d="M82 0zM82 303v924h209v-885q0 -61 20.5 -81.5t73.5 -20.5q35 0 56.5 17t35.5 46v924h209v-1247q0 -150 -65.5 -221.5t-221.5 -71.5h-274v176h223q70 0 97.5 23.5t27.5 93.5v157q-23 -41 -67 -62.5t-113 -21.5q-61 0 -101 11.5t-65 40t-35 76.5t-10 122zM100 1405v213h207 v-213h-207zM469 1405v213h209v-213h-209z" />
<glyph unicode="&#x152;" horiz-adv-x="1034" d="M74 332v956q0 109 13 173.5t50 99t102.5 46t170.5 11.5h530v-197h-225v-233h217v-189h-217v-798h225v-201h-530q-104 0 -170 11.5t-103 46t-50 100t-13 174.5zM309 332q0 -41 3 -66.5t14.5 -39t31 -18.5t52.5 -5h75v1210h-75q-33 0 -52.5 -4t-31 -18.5t-14.5 -39 t-3 -63.5v-956z" />
<glyph unicode="&#x153;" horiz-adv-x="1099" d="M74 240v747q0 86 11 137.5t44 79t90 35.5t148 8q76 0 122 -18.5t68 -46.5q23 29 67 47t126 18q86 0 139 -8t84 -35.5t42 -79t11 -137.5v-446h-367v-295q0 -55 17.5 -71.5t73.5 -16.5q55 0 71.5 17.5t16.5 76.5v166h188v-178q0 -86 -11 -137.5t-42 -79t-84 -35.5t-139 -8 q-145 0 -195 61q-25 -29 -70 -45t-118 -16q-90 0 -147.5 8t-90.5 35.5t-44 79t-11 137.5zM276 260q0 -53 16.5 -70.5t74.5 -17.5q59 0 74.5 19.5t15.5 68.5v705q0 53 -16.5 69.5t-73.5 16.5t-74 -17.5t-17 -68.5v-705zM659 707h179v264q0 57 -16.5 74.5t-71.5 17.5 q-53 0 -72 -17.5t-19 -68.5v-270z" />
<glyph unicode="&#x178;" horiz-adv-x="724" d="M6 0zM6 1618h234l116 -731h9l122 731h230l-242 -1047v-571h-235v571zM76 1796v213h207v-213h-207zM445 1796v213h209v-213h-209z" />
<glyph unicode="&#x2c6;" horiz-adv-x="655" d="M29 1309l209 340h178l207 -340h-148l-149 223l-150 -223h-147z" />
<glyph unicode="&#x2dc;" horiz-adv-x="788" d="M94 1407v149q23 23 59.5 38.5t79.5 15.5t82 -10.5t77 -21.5t77 -21.5t82 -10.5q94 0 141 74v-147q-23 -27 -59.5 -43.5t-83.5 -16.5q-43 0 -82 10.5t-77 23.5t-77 23.5t-82 10.5q-51 0 -82.5 -20.5t-54.5 -53.5z" />
<glyph unicode="&#x2000;" horiz-adv-x="1020" />
<glyph unicode="&#x2001;" horiz-adv-x="2040" />
<glyph unicode="&#x2002;" horiz-adv-x="1020" />
<glyph unicode="&#x2003;" horiz-adv-x="2040" />
<glyph unicode="&#x2004;" horiz-adv-x="680" />
<glyph unicode="&#x2005;" horiz-adv-x="510" />
<glyph unicode="&#x2006;" horiz-adv-x="340" />
<glyph unicode="&#x2007;" horiz-adv-x="340" />
<glyph unicode="&#x2008;" horiz-adv-x="255" />
<glyph unicode="&#x2009;" horiz-adv-x="408" />
<glyph unicode="&#x200a;" horiz-adv-x="113" />
<glyph unicode="&#x2010;" horiz-adv-x="421" d="M43 590v184h334v-184h-334z" />
<glyph unicode="&#x2011;" horiz-adv-x="421" d="M43 590v184h334v-184h-334z" />
<glyph unicode="&#x2012;" horiz-adv-x="421" d="M43 590v184h334v-184h-334z" />
<glyph unicode="&#x2013;" horiz-adv-x="727" d="M43 590v184h641v-184h-641z" />
<glyph unicode="&#x2014;" horiz-adv-x="1191" d="M43 590v184h1106v-184h-1106z" />
<glyph unicode="&#x2018;" horiz-adv-x="395" d="M90 1319v256q0 55 7 98t27.5 73t59.5 44t105 14h16v-96h-26q-35 0 -50.5 -20.5t-15.5 -75.5v-25h92v-268h-215z" />
<glyph unicode="&#x2019;" horiz-adv-x="395" d="M90 1278v96h27q33 0 49 16.5t16 59.5v45h-92v270h215v-309q0 -86 -43 -132t-149 -46h-23z" />
<glyph unicode="&#x201a;" horiz-adv-x="395" d="M90 0v270h215v-309q0 -86 -43 -132t-149 -46h-23v96h27q33 0 49 16.5t16 59.5v45h-92z" />
<glyph unicode="&#x201c;" horiz-adv-x="790" d="M90 1319v256q0 55 7 98t27.5 73t59.5 44t105 14h16v-96h-26q-35 0 -50.5 -20.5t-15.5 -75.5v-25h92v-268h-215zM90 1319zM485 1319v256q0 55 7 98t27.5 73t59.5 44t105 14h16v-96h-26q-35 0 -50.5 -20.5t-15.5 -75.5v-25h92v-268h-215z" />
<glyph unicode="&#x201d;" horiz-adv-x="790" d="M90 1278v96h27q33 0 49 16.5t16 59.5v45h-92v270h215v-309q0 -86 -43 -132t-149 -46h-23zM90 1278zM485 1278v96h27q33 0 49 16.5t16 59.5v45h-92v270h215v-309q0 -86 -43 -132t-149 -46h-23z" />
<glyph unicode="&#x201e;" horiz-adv-x="790" d="M90 0v270h215v-309q0 -86 -43 -132t-149 -46h-23v96h27q33 0 49 16.5t16 59.5v45h-92zM90 0zM485 0v270h215v-309q0 -86 -43 -132t-149 -46h-23v96h27q33 0 49 16.5t16 59.5v45h-92z" />
<glyph unicode="&#x2022;" horiz-adv-x="663" d="M78 846v59q0 78 11 124t40 70.5t78 32t127 7.5t128 -7.5t77.5 -32t38 -70.5t10.5 -124v-59q0 -78 -10.5 -125t-38 -71.5t-77.5 -33t-128 -8.5t-127 8.5t-78 33t-40 71.5t-11 125z" />
<glyph unicode="&#x2026;" horiz-adv-x="1581" d="M96 0v270h215v-270h-215zM96 0zM682 0v270h215v-270h-215zM1268 0v270h215v-270h-215z" />
<glyph unicode="&#x202f;" horiz-adv-x="408" />
<glyph unicode="&#x2039;" horiz-adv-x="479" d="M78 668v170l319 215v-160l-200 -139l200 -142v-159z" />
<glyph unicode="&#x203a;" horiz-adv-x="479" d="M82 453v159l201 142l-201 139v160l319 -215v-170z" />
<glyph unicode="&#x205f;" horiz-adv-x="510" />
<glyph unicode="&#x20ac;" horiz-adv-x="847" d="M47 573l25 146h55v176h-80l25 147h55v256q0 111 14.5 178.5t52 103.5t103 47t166.5 11q98 0 161.5 -11t100.5 -47t50 -102.5t13 -179.5v-98h-227v105q0 41 -4 66.5t-14.5 38.5t-29.5 18.5t-50 5.5q-37 0 -57.5 -8.5t-29.5 -27t-11.5 -47t-2.5 -71.5v-238h381l-41 -147 h-340v-176h291l-43 -146h-248v-235q0 -49 2.5 -80t12.5 -48t30.5 -22.5t55.5 -5.5q33 0 52.5 5.5t29.5 19.5t13 39.5t3 66.5v109h227v-100q0 -113 -13 -180.5t-50 -103.5t-100.5 -47t-161.5 -11q-104 0 -170 11t-102.5 47t-50 103.5t-13.5 180.5v251h-80z" />
<glyph unicode="&#x2122;" horiz-adv-x="1208" d="M66 1513v105h380v-105h-112v-712h-156v712h-112zM524 801v817h207l90 -553h6l97 553h204v-817h-122v573h-11l-102 -573h-133l-105 579h-8v-579h-123z" />
<glyph unicode="&#x25fc;" horiz-adv-x="1228" d="M0 0v1229h1229v-1229h-1229z" />
<glyph unicode="&#xfb01;" horiz-adv-x="892" d="M27 0zM27 1057v170h75v131q0 135 68 197.5t229 62.5h66v-156h-51q-102 0 -103 -114v-121h156v-170h-156v-1057h-209v1057h-75zM590 0v1227h207v-1227h-207zM590 1405v213h207v-213h-207z" />
<glyph unicode="&#xfb02;" horiz-adv-x="886" d="M27 0zM27 1057v170h75v131q0 135 68 197.5t229 62.5h66v-156h-51q-102 0 -103 -114v-121h156v-170h-156v-1057h-209v1057h-75zM586 0v1618h209v-1618h-209z" />
</font>
</defs>
</svg>
